<svg width="363" height="125" viewBox="0 0 363 125" fill="none" xmlns="http://www.w3.org/2000/svg">
<path d="M121.717 81.263C121.474 79.2677 121.279 77.102 121.133 74.766C121.036 72.3813 120.987 70.167 120.987 68.123C120.987 64.8623 121.084 61.7477 121.279 58.779C121.522 55.7617 121.79 52.6227 122.082 49.362C122.423 46.0527 122.788 42.4757 123.177 38.631C123.566 34.7377 123.907 30.2603 124.199 25.199C124.832 25.199 125.732 25.3937 126.9 25.783C128.117 26.1237 129.333 26.5373 130.55 27.024C131.767 27.5107 132.837 28.0217 133.762 28.557C134.687 29.0437 135.222 29.4573 135.368 29.798C134.541 31.696 133.786 34.2023 133.105 37.317C132.472 40.383 131.937 43.741 131.499 47.391C131.061 51.041 130.72 54.7883 130.477 58.633C130.234 62.4777 130.112 66.079 130.112 69.437C130.112 70.9943 130.136 72.5273 130.185 74.036C130.234 75.5447 130.307 76.9317 130.404 78.197C131.426 76.6883 132.594 74.547 133.908 71.773C135.271 68.9503 136.658 65.8113 138.069 62.356C139.529 58.9007 140.965 55.2993 142.376 51.552C143.836 47.756 145.174 44.1547 146.391 40.748C147.608 37.2927 148.63 34.2023 149.457 31.477C150.333 28.703 150.941 26.6103 151.282 25.199C151.915 25.199 152.839 25.3937 154.056 25.783C155.321 26.1237 156.538 26.5373 157.706 27.024C158.923 27.5107 159.993 28.0217 160.918 28.557C161.843 29.0437 162.354 29.4573 162.451 29.798C161.624 31.696 160.869 34.2023 160.188 37.317C159.555 40.383 159.02 43.741 158.582 47.391C158.144 51.041 157.803 54.7883 157.56 58.633C157.317 62.4777 157.195 66.079 157.195 69.437C157.195 70.8483 157.195 72.2597 157.195 73.671C157.244 75.0337 157.317 76.2747 157.414 77.394C158.971 73.3547 160.577 69.364 162.232 65.422C163.935 61.4313 165.614 57.6353 167.269 54.034C168.924 50.384 170.53 47.0017 172.087 43.887C173.644 40.7237 175.08 37.9253 176.394 35.492C177.708 33.01 178.852 30.966 179.825 29.36C180.798 27.754 181.553 26.6833 182.088 26.148C183.207 26.294 184.351 26.7077 185.519 27.389C186.736 28.0217 187.806 28.849 188.731 29.871C187.32 30.9903 185.714 32.8397 183.913 35.419C182.112 37.9497 180.263 40.894 178.365 44.252C176.467 47.61 174.545 51.187 172.598 54.983C170.7 58.779 168.924 62.4777 167.269 66.079C165.614 69.6803 164.13 73.0383 162.816 76.153C161.551 79.2677 160.577 81.774 159.896 83.672C158.631 84.256 157.39 84.548 156.173 84.548C154.616 84.3533 153.131 83.964 151.72 83.38C150.357 82.796 149.384 82.0903 148.8 81.263C148.654 80.4843 148.532 79.584 148.435 78.562C148.338 77.4913 148.265 76.445 148.216 75.423C148.167 74.401 148.119 73.4277 148.07 72.503C148.07 71.5297 148.07 70.7023 148.07 70.021C148.07 65.6897 148.24 61.2853 148.581 56.808C148.922 52.282 149.335 47.4397 149.822 42.281C148.703 45.5903 147.462 49.143 146.099 52.939C144.736 56.735 143.301 60.5067 141.792 64.254C140.332 67.9527 138.823 71.5053 137.266 74.912C135.757 78.27 134.273 81.19 132.813 83.672C131.548 84.256 130.307 84.548 129.09 84.548C127.533 84.3533 126.048 83.964 124.637 83.38C123.274 82.796 122.301 82.0903 121.717 81.263ZM204.229 48.778C204.034 51.7953 203.499 54.399 202.623 56.589C201.747 58.7303 200.481 60.6283 198.827 62.283C197.221 63.889 195.25 65.349 192.914 66.663C190.578 67.977 187.852 69.2423 184.738 70.459C184.738 70.751 184.713 71.0673 184.665 71.408C184.665 71.7 184.665 72.0163 184.665 72.357C184.665 72.9897 184.713 73.6467 184.811 74.328C184.908 75.0093 185.078 75.642 185.322 76.226C185.565 76.81 185.906 77.2967 186.344 77.686C186.782 78.0267 187.341 78.197 188.023 78.197C189.337 78.197 190.626 77.905 191.892 77.321C193.157 76.737 194.349 76.0313 195.469 75.204C196.637 74.328 197.707 73.4033 198.681 72.43C199.703 71.408 200.603 70.4833 201.382 69.656C201.868 70.094 202.282 70.5077 202.623 70.897C200.433 73.817 198.024 76.2503 195.396 78.197C192.816 80.095 190.359 81.3117 188.023 81.847C184.665 81.4577 182.037 80.241 180.139 78.197C178.289 76.1043 177.365 73.598 177.365 70.678C177.365 68.6827 177.632 66.663 178.168 64.619C178.752 62.5263 179.53 60.531 180.504 58.633C181.526 56.6863 182.694 54.8613 184.008 53.158C185.37 51.4547 186.806 49.9703 188.315 48.705C189.872 47.4397 191.454 46.442 193.06 45.712C194.714 44.982 196.345 44.617 197.951 44.617C200.189 44.909 202.282 46.296 204.229 48.778ZM199.192 51.187C197.878 51.3817 196.515 51.917 195.104 52.793C193.692 53.669 192.354 54.837 191.089 56.297C189.872 57.757 188.753 59.4603 187.731 61.407C186.709 63.3537 185.906 65.4463 185.322 67.685C189.215 65.7383 192.451 63.3537 195.031 60.531C197.61 57.6597 198.997 54.545 199.192 51.187ZM232.793 49.508C233.28 49.508 233.84 49.6053 234.472 49.8C235.154 49.946 235.762 50.165 236.297 50.457C236.833 50.7003 237.271 50.968 237.611 51.26C238.001 51.552 238.195 51.8197 238.195 52.063C237.222 54.107 236.322 56.1753 235.494 58.268C234.667 60.312 233.961 62.283 233.377 64.181C232.793 66.079 232.331 67.8553 231.99 69.51C231.698 71.1647 231.552 72.6003 231.552 73.817C231.552 75.1797 231.698 76.3233 231.99 77.248C232.282 78.124 232.769 78.7567 233.45 79.146C232.866 79.5353 232.112 79.8517 231.187 80.095C230.263 80.3383 229.435 80.46 228.705 80.46C226.077 80.46 224.763 78.6593 224.763 75.058C224.763 72.284 225.688 68.488 227.537 63.67C226.564 65.9087 225.445 68.0257 224.179 70.021C222.914 71.9677 221.624 73.6953 220.31 75.204C218.996 76.7127 217.658 77.9537 216.295 78.927C214.981 79.8517 213.765 80.4113 212.645 80.606C210.845 80.5087 209.385 79.657 208.265 78.051C207.146 76.3963 206.586 74.3037 206.586 71.773C206.586 69.0477 207.17 66.1763 208.338 63.159C209.506 60.1417 210.991 57.3433 212.791 54.764C214.641 52.1847 216.636 50.0433 218.777 48.34C220.919 46.588 222.987 45.6633 224.982 45.566C225.469 45.712 226.004 46.004 226.588 46.442C227.221 46.88 227.805 47.391 228.34 47.975C228.924 48.559 229.411 49.1673 229.8 49.8C230.19 50.384 230.409 50.895 230.457 51.333C228.511 51.625 226.491 52.574 224.398 54.18C222.354 55.786 220.481 57.7327 218.777 60.02C217.123 62.2587 215.76 64.6677 214.689 67.247C213.619 69.8263 213.083 72.2353 213.083 74.474C213.083 75.3987 213.424 75.9827 214.105 76.226C215.517 75.934 217.147 74.7417 218.996 72.649C220.846 70.5077 223.084 67.2227 225.712 62.794C226.199 61.918 226.734 60.9447 227.318 59.874C227.951 58.8033 228.584 57.684 229.216 56.516C229.849 55.348 230.457 54.18 231.041 53.012C231.674 51.7953 232.258 50.6273 232.793 49.508ZM244.993 51.041C244.75 50.749 244.531 50.1407 244.336 49.216C244.142 48.2427 244.044 47.4153 244.044 46.734C245.31 46.8313 246.526 46.9287 247.694 47.026C248.862 47.0747 249.933 47.1233 250.906 47.172C251.636 45.712 252.415 44.2763 253.242 42.865C254.118 41.405 254.946 40.091 255.724 38.923C256.552 37.7063 257.306 36.6843 257.987 35.857C258.717 35.0297 259.277 34.4943 259.666 34.251C260.153 34.251 260.761 34.3483 261.491 34.543C262.27 34.689 263.049 34.908 263.827 35.2C264.606 35.4433 265.312 35.711 265.944 36.003C266.577 36.295 267.015 36.587 267.258 36.879C265.798 38.7283 264.533 40.456 263.462 42.062C262.44 43.6193 261.321 45.42 260.104 47.464C261.078 47.464 262.051 47.4397 263.024 47.391C264.046 47.3423 265.068 47.2693 266.09 47.172C266.334 47.4153 266.528 47.7317 266.674 48.121C266.82 48.4617 266.893 48.8267 266.893 49.216C264.509 50.092 261.613 50.5787 258.206 50.676C256.99 53.012 255.895 55.348 254.921 57.684C253.997 59.9713 253.194 62.1857 252.512 64.327C251.88 66.4683 251.369 68.488 250.979 70.386C250.639 72.284 250.468 73.9873 250.468 75.496C250.468 77.6373 251.271 78.8297 252.877 79.073C254.337 78.8783 255.724 78.5133 257.038 77.978C258.352 77.4427 259.52 76.7613 260.542 75.934C260.834 76.372 261.005 76.737 261.053 77.029C260.761 77.467 260.25 77.978 259.52 78.562C258.839 79.146 258.085 79.7057 257.257 80.241C256.43 80.825 255.627 81.3117 254.848 81.701C254.07 82.0903 253.486 82.3093 253.096 82.358C251.88 82.3093 250.663 82.0417 249.446 81.555C248.23 81.0683 247.11 80.46 246.088 79.73C245.115 79 244.312 78.197 243.679 77.321C243.047 76.3963 242.73 75.496 242.73 74.62C242.73 73.452 242.876 71.992 243.168 70.24C243.509 68.4393 243.971 66.4927 244.555 64.4C245.139 62.3073 245.821 60.1173 246.599 57.83C247.378 55.5427 248.23 53.2797 249.154 51.041H244.993ZM266.278 77.759C266.278 76.0557 266.448 74.0603 266.789 71.773C267.129 69.437 267.616 66.955 268.249 64.327C268.93 61.699 269.709 58.9493 270.585 56.078C271.509 53.2067 272.531 50.3353 273.651 47.464C274.624 44.8847 275.743 42.281 277.009 39.653C278.323 37.025 279.734 34.4457 281.243 31.915C282.751 29.3843 284.309 26.9753 285.915 24.688C287.569 22.4007 289.224 20.308 290.879 18.41C291.657 18.41 292.485 18.5073 293.361 18.702C294.285 18.8967 295.161 19.1643 295.989 19.505C296.865 19.797 297.643 20.162 298.325 20.6C299.055 21.038 299.639 21.476 300.077 21.914C296.427 25.6613 293.142 29.4573 290.222 33.302C287.302 37.098 284.99 40.675 283.287 44.033C282.362 45.8823 281.51 47.61 280.732 49.216C280.002 50.822 279.32 52.428 278.688 54.034C278.055 55.5913 277.471 57.173 276.936 58.779C276.449 60.3363 275.987 61.991 275.549 63.743C284.893 51.8197 291.828 45.858 296.354 45.858C297.619 45.858 298.982 46.2717 300.442 47.099C301.902 47.9263 303.191 49.0457 304.311 50.457C302.802 52.1117 301.245 54.107 299.639 56.443C298.033 58.779 296.548 61.1393 295.186 63.524C293.872 65.86 292.777 68.05 291.901 70.094C291.073 72.0893 290.66 73.5737 290.66 74.547C290.66 75.0337 290.733 75.3743 290.879 75.569C291.025 75.715 291.341 75.788 291.828 75.788C292.558 75.788 293.142 75.6907 293.58 75.496C294.018 75.3013 294.285 75.204 294.383 75.204C294.626 75.5933 294.772 75.861 294.821 76.007C294.869 76.153 294.894 76.2747 294.894 76.372C294.894 76.5667 294.602 76.8587 294.018 77.248C293.434 77.5887 292.728 77.9537 291.901 78.343C291.122 78.6837 290.343 79 289.565 79.292C288.786 79.584 288.202 79.73 287.813 79.73C287.326 79.73 286.839 79.584 286.353 79.292C285.866 79.0487 285.428 78.708 285.039 78.27C284.698 77.832 284.406 77.3453 284.163 76.81C283.968 76.2747 283.871 75.715 283.871 75.131C283.871 74.401 284.065 73.3303 284.455 71.919C284.893 70.459 285.477 68.78 286.207 66.882C286.937 64.9353 287.813 62.8183 288.835 60.531C289.857 58.2437 290.952 55.9077 292.12 53.523C292.12 53.3283 292.022 53.231 291.828 53.231C291.682 53.231 291.292 53.4257 290.66 53.815C290.076 54.2043 289.516 54.5937 288.981 54.983C287.229 56.297 285.452 57.9273 283.652 59.874C281.9 61.772 280.172 63.8647 278.469 66.152C276.814 68.4393 275.232 70.8727 273.724 73.452C272.264 75.9827 270.998 78.5377 269.928 81.117C269.782 81.4577 269.563 81.774 269.271 82.066C268.979 82.358 268.735 82.504 268.541 82.504C268.395 82.504 268.176 82.3337 267.884 81.993C267.64 81.6523 267.397 81.2143 267.154 80.679C266.959 80.1923 266.764 79.6813 266.57 79.146C266.375 78.6107 266.278 78.1483 266.278 77.759ZM330.196 48.778C330.002 51.7953 329.466 54.399 328.59 56.589C327.714 58.7303 326.449 60.6283 324.794 62.283C323.188 63.889 321.217 65.349 318.881 66.663C316.545 67.977 313.82 69.2423 310.705 70.459C310.705 70.751 310.681 71.0673 310.632 71.408C310.632 71.7 310.632 72.0163 310.632 72.357C310.632 72.9897 310.681 73.6467 310.778 74.328C310.876 75.0093 311.046 75.642 311.289 76.226C311.533 76.81 311.873 77.2967 312.311 77.686C312.749 78.0267 313.309 78.197 313.99 78.197C315.304 78.197 316.594 77.905 317.859 77.321C319.125 76.737 320.317 76.0313 321.436 75.204C322.604 74.328 323.675 73.4033 324.648 72.43C325.67 71.408 326.571 70.4833 327.349 69.656C327.836 70.094 328.25 70.5077 328.59 70.897C326.4 73.817 323.991 76.2503 321.363 78.197C318.784 80.095 316.326 81.3117 313.99 81.847C310.632 81.4577 308.004 80.241 306.106 78.197C304.257 76.1043 303.332 73.598 303.332 70.678C303.332 68.6827 303.6 66.663 304.135 64.619C304.719 62.5263 305.498 60.531 306.471 58.633C307.493 56.6863 308.661 54.8613 309.975 53.158C311.338 51.4547 312.774 49.9703 314.282 48.705C315.84 47.4397 317.421 46.442 319.027 45.712C320.682 44.982 322.312 44.617 323.918 44.617C326.157 44.909 328.25 46.296 330.196 48.778ZM325.159 51.187C323.845 51.3817 322.483 51.917 321.071 52.793C319.66 53.669 318.322 54.837 317.056 56.297C315.84 57.757 314.72 59.4603 313.698 61.407C312.676 63.3537 311.873 65.4463 311.289 67.685C315.183 65.7383 318.419 63.3537 320.998 60.531C323.578 57.6597 324.965 54.545 325.159 51.187ZM331.824 77.54C332.067 76.1287 332.481 74.2793 333.065 71.992C333.698 69.656 334.428 67.1983 335.255 64.619C336.082 61.991 336.958 59.363 337.883 56.735C338.808 54.107 339.708 51.7467 340.584 49.654C341.217 48.1453 341.776 46.9773 342.263 46.15C342.75 45.274 343.285 44.544 343.869 43.96C344.55 44.0573 345.256 44.2277 345.986 44.471C346.716 44.7143 347.422 45.0063 348.103 45.347C348.784 45.6877 349.393 46.0527 349.928 46.442C350.463 46.7827 350.877 47.1233 351.169 47.464C349.855 49.0213 348.687 50.7977 347.665 52.793C346.692 54.7883 345.694 57.3433 344.672 60.458C347.3 58.122 349.612 55.8833 351.607 53.742C353.651 51.6007 355.549 49.216 357.301 46.588C357.593 46.3447 358.104 46.223 358.834 46.223C359.515 46.223 360.172 46.3447 360.805 46.588C361.438 46.7827 361.876 47.0747 362.119 47.464C361.243 49.8 360.805 52.1117 360.805 54.399C360.805 56.5403 361.121 58.1463 361.754 59.217C361.705 59.509 361.365 60.0687 360.732 60.896C360.148 61.7233 359.491 62.502 358.761 63.232C357.447 62.5507 356.279 61.626 355.257 60.458C354.235 59.2413 353.481 57.9273 352.994 56.516C350.707 58.122 348.76 59.7037 347.154 61.261C345.548 62.7697 344.161 64.473 342.993 66.371C341.874 68.2203 340.9 70.3617 340.073 72.795C339.294 75.2283 338.54 78.124 337.81 81.482C337.372 81.4333 336.837 81.263 336.204 80.971C335.62 80.7277 335.012 80.4113 334.379 80.022C333.795 79.6327 333.26 79.219 332.773 78.781C332.286 78.343 331.97 77.9293 331.824 77.54Z" fill="#55E6E6"/>
<path d="M258.475 116.6C258.092 116.8 257.683 116.9 257.25 116.9C256.717 116.833 256.2 116.7 255.7 116.5C255.217 116.3 254.858 116.058 254.625 115.775C254.492 114.958 254.383 114.208 254.3 113.525C254.217 112.842 254.15 112.2 254.1 111.6C254.05 110.983 254.017 110.4 254 109.85C253.983 109.283 253.975 108.717 253.975 108.15C253.975 107.4 253.983 106.608 254 105.775C254.017 104.942 254.033 104.058 254.05 103.125C254.083 102.175 254.108 101.167 254.125 100.1C254.142 99.0167 254.15 97.8417 254.15 96.575C254.367 96.575 254.692 96.6417 255.125 96.775C255.558 96.8917 255.983 97.0333 256.4 97.2C256.833 97.3667 257.217 97.5417 257.55 97.725C257.883 97.8917 258.067 98.0333 258.1 98.15C257.933 98.6167 257.783 99.225 257.65 99.975C257.533 100.725 257.433 101.558 257.35 102.475C257.283 103.392 257.233 104.358 257.2 105.375C257.167 106.392 257.15 107.4 257.15 108.4C257.15 109.15 257.158 109.825 257.175 110.425C257.192 111.008 257.208 111.542 257.225 112.025C257.258 112.492 257.3 112.933 257.35 113.35C257.4 113.75 257.458 114.15 257.525 114.55C257.992 113.133 258.5 111.717 259.05 110.3C259.617 108.883 260.192 107.525 260.775 106.225C261.375 104.908 261.967 103.683 262.55 102.55C263.133 101.417 263.683 100.433 264.2 99.6C264.733 98.75 265.208 98.0833 265.625 97.6C266.042 97.1 266.383 96.8333 266.65 96.8C266.833 96.8333 267.025 96.9083 267.225 97.025C267.442 97.125 267.642 97.25 267.825 97.4C268.008 97.55 268.175 97.7167 268.325 97.9C268.475 98.0833 268.592 98.2667 268.675 98.45C268.058 98.6667 267.392 99.175 266.675 99.975C265.975 100.775 265.267 101.742 264.55 102.875C263.833 103.992 263.133 105.217 262.45 106.55C261.783 107.867 261.175 109.158 260.625 110.425C260.092 111.692 259.633 112.875 259.25 113.975C258.867 115.075 258.608 115.95 258.475 116.6ZM273.113 104.9C273.279 104.9 273.471 104.933 273.688 105C273.921 105.05 274.129 105.125 274.313 105.225C274.496 105.308 274.646 105.4 274.763 105.5C274.896 105.6 274.963 105.692 274.963 105.775C274.629 106.475 274.321 107.183 274.038 107.9C273.754 108.6 273.513 109.275 273.313 109.925C273.113 110.575 272.954 111.183 272.838 111.75C272.738 112.317 272.688 112.808 272.688 113.225C272.688 113.692 272.738 114.083 272.838 114.4C272.938 114.7 273.104 114.917 273.338 115.05C273.138 115.183 272.879 115.292 272.563 115.375C272.246 115.458 271.963 115.5 271.713 115.5C270.813 115.5 270.363 114.883 270.363 113.65C270.363 112.7 270.679 111.4 271.313 109.75C270.979 110.517 270.596 111.242 270.163 111.925C269.729 112.592 269.288 113.183 268.838 113.7C268.388 114.217 267.929 114.642 267.463 114.975C267.013 115.292 266.596 115.483 266.213 115.55C265.596 115.517 265.096 115.225 264.713 114.675C264.329 114.108 264.138 113.392 264.138 112.525C264.138 111.592 264.338 110.608 264.738 109.575C265.138 108.542 265.646 107.583 266.263 106.7C266.896 105.817 267.579 105.083 268.312 104.5C269.046 103.9 269.754 103.583 270.438 103.55C270.604 103.6 270.788 103.7 270.988 103.85C271.204 104 271.404 104.175 271.588 104.375C271.788 104.575 271.954 104.783 272.088 105C272.221 105.2 272.296 105.375 272.313 105.525C271.646 105.625 270.954 105.95 270.238 106.5C269.538 107.05 268.896 107.717 268.312 108.5C267.746 109.267 267.279 110.092 266.913 110.975C266.546 111.858 266.363 112.683 266.363 113.45C266.363 113.767 266.479 113.967 266.713 114.05C267.196 113.95 267.754 113.542 268.388 112.825C269.021 112.092 269.788 110.967 270.688 109.45C270.854 109.15 271.038 108.817 271.238 108.45C271.454 108.083 271.671 107.7 271.888 107.3C272.104 106.9 272.313 106.5 272.513 106.1C272.729 105.683 272.929 105.283 273.113 104.9ZM280.281 102.875C280.714 103.008 281.122 103.308 281.506 103.775C281.889 104.225 282.172 104.725 282.356 105.275C282.172 105.725 281.889 106.267 281.506 106.9C281.122 107.533 280.739 108.183 280.356 108.85C279.972 109.5 279.622 110.125 279.306 110.725C279.006 111.308 278.831 111.792 278.781 112.175C279.047 111.892 279.339 111.567 279.656 111.2C279.989 110.817 280.306 110.442 280.606 110.075C280.922 109.692 281.214 109.35 281.481 109.05C281.747 108.733 281.956 108.5 282.106 108.35C282.422 108.017 282.797 107.633 283.231 107.2C283.664 106.75 284.114 106.333 284.581 105.95C285.064 105.55 285.547 105.217 286.031 104.95C286.514 104.667 286.956 104.525 287.356 104.525C287.789 104.525 288.147 104.675 288.431 104.975C288.731 105.258 288.964 105.558 289.131 105.875C289.131 105.908 289.064 105.958 288.931 106.025C288.814 106.075 288.639 106.233 288.406 106.5C288.172 106.8 287.906 107.217 287.606 107.75C287.322 108.267 287.039 108.833 286.756 109.45C286.489 110.05 286.264 110.667 286.081 111.3C285.897 111.933 285.806 112.508 285.806 113.025C285.806 113.442 285.856 113.708 285.956 113.825C286.072 113.942 286.231 114 286.431 114C286.614 114 286.806 113.958 287.006 113.875C287.206 113.792 287.364 113.75 287.481 113.75C287.547 113.783 287.597 113.858 287.631 113.975C287.681 114.075 287.706 114.167 287.706 114.25C287.572 114.367 287.414 114.483 287.231 114.6C287.047 114.717 286.856 114.825 286.656 114.925C286.456 115.025 286.256 115.108 286.056 115.175C285.872 115.242 285.706 115.275 285.556 115.275C285.072 115.275 284.672 115.2 284.356 115.05C284.056 114.917 283.814 114.733 283.631 114.5C283.464 114.267 283.347 113.992 283.281 113.675C283.214 113.342 283.181 112.992 283.181 112.625C283.181 112.425 283.197 112.2 283.231 111.95C283.264 111.7 283.331 111.408 283.431 111.075C283.531 110.725 283.672 110.317 283.856 109.85C284.039 109.367 284.272 108.792 284.556 108.125C284.522 108.125 284.297 108.242 283.881 108.475C283.464 108.708 283.014 109.067 282.531 109.55C281.747 110.3 281.039 111.042 280.406 111.775C279.789 112.508 279.156 113.325 278.506 114.225C278.139 114.742 277.814 115.175 277.531 115.525C277.264 115.892 277.031 116.133 276.831 116.25C276.481 116.05 276.222 115.767 276.056 115.4C275.889 115.05 275.764 114.683 275.681 114.3C275.681 113.983 275.722 113.583 275.806 113.1C275.906 112.617 276.031 112.083 276.181 111.5C276.347 110.9 276.547 110.275 276.781 109.625C277.014 108.975 277.272 108.325 277.556 107.675C278.189 106.208 278.764 105.058 279.281 104.225C279.814 103.392 280.147 102.942 280.281 102.875ZM291.207 105.425C291.123 105.325 291.048 105.117 290.982 104.8C290.915 104.467 290.882 104.183 290.882 103.95C291.315 103.983 291.732 104.017 292.132 104.05C292.532 104.067 292.898 104.083 293.232 104.1C293.482 103.6 293.748 103.108 294.032 102.625C294.332 102.125 294.615 101.675 294.882 101.275C295.165 100.858 295.423 100.508 295.657 100.225C295.907 99.9417 296.098 99.7583 296.232 99.675C296.398 99.675 296.607 99.7083 296.857 99.775C297.123 99.825 297.39 99.9 297.657 100C297.923 100.083 298.165 100.175 298.382 100.275C298.598 100.375 298.748 100.475 298.832 100.575C298.332 101.208 297.898 101.8 297.532 102.35C297.182 102.883 296.798 103.5 296.382 104.2C296.715 104.2 297.048 104.192 297.382 104.175C297.732 104.158 298.082 104.133 298.432 104.1C298.515 104.183 298.582 104.292 298.632 104.425C298.682 104.542 298.707 104.667 298.707 104.8C297.89 105.1 296.898 105.267 295.732 105.3C295.315 106.1 294.94 106.9 294.607 107.7C294.29 108.483 294.015 109.242 293.782 109.975C293.565 110.708 293.39 111.4 293.257 112.05C293.14 112.7 293.082 113.283 293.082 113.8C293.082 114.533 293.357 114.942 293.907 115.025C294.407 114.958 294.882 114.833 295.332 114.65C295.782 114.467 296.182 114.233 296.532 113.95C296.632 114.1 296.69 114.225 296.707 114.325C296.607 114.475 296.432 114.65 296.182 114.85C295.948 115.05 295.69 115.242 295.407 115.425C295.123 115.625 294.848 115.792 294.582 115.925C294.315 116.058 294.115 116.133 293.982 116.15C293.565 116.133 293.148 116.042 292.732 115.875C292.315 115.708 291.932 115.5 291.582 115.25C291.248 115 290.973 114.725 290.757 114.425C290.54 114.108 290.432 113.8 290.432 113.5C290.432 113.1 290.482 112.6 290.582 112C290.698 111.383 290.857 110.717 291.057 110C291.257 109.283 291.49 108.533 291.757 107.75C292.023 106.967 292.315 106.192 292.632 105.425H291.207ZM307.146 104.9C307.312 104.9 307.504 104.933 307.721 105C307.954 105.05 308.162 105.125 308.346 105.225C308.529 105.308 308.679 105.4 308.796 105.5C308.929 105.6 308.996 105.692 308.996 105.775C308.662 106.475 308.354 107.183 308.071 107.9C307.787 108.6 307.546 109.275 307.346 109.925C307.146 110.575 306.987 111.183 306.871 111.75C306.771 112.317 306.721 112.808 306.721 113.225C306.721 113.692 306.771 114.083 306.871 114.4C306.971 114.7 307.137 114.917 307.371 115.05C307.171 115.183 306.912 115.292 306.596 115.375C306.279 115.458 305.996 115.5 305.746 115.5C304.846 115.5 304.396 114.883 304.396 113.65C304.396 112.7 304.712 111.4 305.346 109.75C305.012 110.517 304.629 111.242 304.196 111.925C303.762 112.592 303.321 113.183 302.871 113.7C302.421 114.217 301.962 114.642 301.496 114.975C301.046 115.292 300.629 115.483 300.246 115.55C299.629 115.517 299.129 115.225 298.746 114.675C298.362 114.108 298.171 113.392 298.171 112.525C298.171 111.592 298.371 110.608 298.771 109.575C299.171 108.542 299.679 107.583 300.296 106.7C300.929 105.817 301.612 105.083 302.346 104.5C303.079 103.9 303.787 103.583 304.471 103.55C304.637 103.6 304.821 103.7 305.021 103.85C305.237 104 305.437 104.175 305.621 104.375C305.821 104.575 305.987 104.783 306.121 105C306.254 105.2 306.329 105.375 306.346 105.525C305.679 105.625 304.987 105.95 304.271 106.5C303.571 107.05 302.929 107.717 302.346 108.5C301.779 109.267 301.312 110.092 300.946 110.975C300.579 111.858 300.396 112.683 300.396 113.45C300.396 113.767 300.512 113.967 300.746 114.05C301.229 113.95 301.787 113.542 302.421 112.825C303.054 112.092 303.821 110.967 304.721 109.45C304.887 109.15 305.071 108.817 305.271 108.45C305.487 108.083 305.704 107.7 305.921 107.3C306.137 106.9 306.346 106.5 306.546 106.1C306.762 105.683 306.962 105.283 307.146 104.9ZM305.067 122.45C305.067 122.35 305.101 122.258 305.167 122.175C305.234 122.092 305.309 122.008 305.392 121.925C305.592 122.108 305.767 122.25 305.917 122.35C306.051 122.45 306.184 122.533 306.317 122.6C306.434 122.667 306.559 122.708 306.692 122.725C306.826 122.742 306.984 122.75 307.167 122.75C308.034 122.75 308.859 122.517 309.642 122.05C310.426 121.6 311.159 120.942 311.842 120.075C312.542 119.208 313.176 118.15 313.742 116.9C314.309 115.65 314.809 114.233 315.242 112.65C315.042 112.85 314.792 113.075 314.492 113.325C314.209 113.558 313.909 113.783 313.592 114C313.276 114.217 312.959 114.417 312.642 114.6C312.342 114.783 312.084 114.917 311.867 115C311.584 114.95 311.317 114.833 311.067 114.65C310.834 114.45 310.626 114.208 310.442 113.925C310.259 113.642 310.117 113.325 310.017 112.975C309.917 112.608 309.867 112.225 309.867 111.825C309.867 111.175 309.984 110.508 310.217 109.825C310.467 109.142 310.792 108.475 311.192 107.825C311.592 107.158 312.059 106.533 312.592 105.95C313.142 105.367 313.717 104.858 314.317 104.425C314.934 103.992 315.551 103.65 316.167 103.4C316.801 103.133 317.417 103 318.017 103C318.601 103 319.034 103.125 319.317 103.375C319.617 103.608 319.834 104.017 319.967 104.6C319.784 104.5 319.551 104.45 319.267 104.45C318.867 104.45 318.401 104.608 317.867 104.925C317.351 105.242 316.817 105.658 316.267 106.175C315.734 106.675 315.201 107.258 314.667 107.925C314.134 108.575 313.659 109.242 313.242 109.925C312.842 110.608 312.509 111.275 312.242 111.925C311.992 112.575 311.867 113.158 311.867 113.675C311.867 113.792 311.876 113.867 311.892 113.9C311.909 113.917 311.934 113.925 311.967 113.925C312.117 113.925 312.317 113.842 312.567 113.675C312.834 113.508 313.126 113.3 313.442 113.05C313.776 112.783 314.117 112.483 314.467 112.15C314.817 111.8 315.151 111.45 315.467 111.1C316.184 110.3 316.834 109.408 317.417 108.425C318.017 107.425 318.492 106.458 318.842 105.525C319.292 105.558 319.692 105.633 320.042 105.75C320.392 105.867 320.634 105.992 320.767 106.125C320.201 107.425 319.742 108.517 319.392 109.4C319.059 110.283 318.767 111.067 318.517 111.75C318.067 112.95 317.642 114.042 317.242 115.025C316.859 116.025 316.459 116.942 316.042 117.775C315.642 118.625 315.201 119.408 314.717 120.125C314.251 120.858 313.717 121.558 313.117 122.225C312.834 122.542 312.509 122.817 312.142 123.05C311.792 123.3 311.426 123.508 311.042 123.675C310.676 123.842 310.309 123.967 309.942 124.05C309.592 124.133 309.267 124.175 308.967 124.175C308.567 124.175 308.159 124.125 307.742 124.025C307.326 123.942 306.942 123.817 306.592 123.65C306.226 123.5 305.909 123.317 305.642 123.1C305.376 122.9 305.184 122.683 305.067 122.45ZM330.322 104.65C330.256 105.683 330.072 106.575 329.772 107.325C329.472 108.058 329.039 108.708 328.472 109.275C327.922 109.825 327.247 110.325 326.447 110.775C325.647 111.225 324.714 111.658 323.647 112.075C323.647 112.175 323.639 112.283 323.622 112.4C323.622 112.5 323.622 112.608 323.622 112.725C323.622 112.942 323.639 113.167 323.672 113.4C323.706 113.633 323.764 113.85 323.847 114.05C323.931 114.25 324.047 114.417 324.197 114.55C324.347 114.667 324.539 114.725 324.772 114.725C325.222 114.725 325.664 114.625 326.097 114.425C326.531 114.225 326.939 113.983 327.322 113.7C327.722 113.4 328.089 113.083 328.422 112.75C328.772 112.4 329.081 112.083 329.347 111.8C329.514 111.95 329.656 112.092 329.772 112.225C329.022 113.225 328.197 114.058 327.297 114.725C326.414 115.375 325.572 115.792 324.772 115.975C323.622 115.842 322.722 115.425 322.072 114.725C321.439 114.008 321.122 113.15 321.122 112.15C321.122 111.467 321.214 110.775 321.397 110.075C321.597 109.358 321.864 108.675 322.197 108.025C322.547 107.358 322.947 106.733 323.397 106.15C323.864 105.567 324.356 105.058 324.872 104.625C325.406 104.192 325.947 103.85 326.497 103.6C327.064 103.35 327.622 103.225 328.172 103.225C328.939 103.325 329.656 103.8 330.322 104.65ZM328.597 105.475C328.147 105.542 327.681 105.725 327.197 106.025C326.714 106.325 326.256 106.725 325.822 107.225C325.406 107.725 325.022 108.308 324.672 108.975C324.322 109.642 324.047 110.358 323.847 111.125C325.181 110.458 326.289 109.642 327.172 108.675C328.056 107.692 328.531 106.625 328.597 105.475Z" fill="#01041E"/>
<path d="M62.8042 112C61.1548 112 59.7492 111.519 58.5875 110.558C57.4258 109.597 56.8449 108.405 56.8449 106.98C56.8449 106.325 56.9718 105.695 57.2256 105.091C57.4793 104.487 57.9115 103.949 58.5221 103.479L62.7923 100.019L67.0566 103.479C67.6672 103.953 68.0994 104.495 68.3531 105.106C68.6108 105.717 68.7397 106.357 68.7397 107.027C68.7397 108.417 68.1628 109.592 67.009 110.553C65.8552 111.514 64.4536 111.997 62.8042 112ZM42.2739 104.777L38.4319 101.451L53.5739 88.3425L57.4159 91.6684L42.2739 104.777ZM80.6344 97.0538L74.1161 91.411L80.6344 85.7682L87.1527 91.411L80.6344 97.0538ZM27.1081 97.0538L20.5898 91.411L27.1081 85.7682L33.6264 91.411L27.1081 97.0538ZM29.7368 78.931C21.4779 78.931 14.4581 76.4271 8.67721 71.4192C2.89637 66.4114 0.00396491 60.3344 0 53.1883C0 46.5295 2.59305 40.77 7.77916 35.9098C12.9653 31.0496 19.4578 28.2488 27.2568 27.5074C30.2067 22.6781 34.239 18.8853 39.3537 16.1291C44.4685 13.3729 50.17 11.9966 56.4584 12C65.0226 12 72.3735 14.4507 78.5112 19.3521C84.6449 24.2535 88.2133 30.3614 89.2165 37.6757C96.5159 38.0567 102.305 40.2534 106.583 44.2659C110.861 48.2783 113 52.9789 113 58.3677C113 64.0551 110.686 68.905 106.059 72.9175C101.436 76.9265 95.82 78.931 89.2105 78.931H29.7368ZM29.7368 73.7824H89.2105C94.135 73.7824 98.3397 72.2739 101.825 69.2569C105.31 66.2398 107.053 62.5998 107.053 58.3368C107.053 54.0738 105.31 50.4338 101.825 47.4168C98.3397 44.3997 94.135 42.8912 89.2105 42.8912H83.2632V40.3169C83.2632 33.9465 80.6404 28.4925 75.3948 23.9549C70.1492 19.4173 63.845 17.1485 56.4822 17.1485C51.1295 17.1485 46.2507 18.4065 41.8457 20.9224C37.4446 23.4418 34.128 26.8312 31.8957 31.0908L31.1939 32.5941H29.4395C22.9687 32.7898 17.4377 34.8732 12.8463 38.8445C8.24702 42.8157 5.94737 47.597 5.94737 53.1883C5.94737 58.8757 8.26882 63.7308 12.9117 67.7535C17.5546 71.7762 23.163 73.7858 29.7368 73.7824Z" fill="#55E6E6"/>
</svg>
